<svg width="1081" height="179" viewBox="0 0 1081 179" fill="none" xmlns="http://www.w3.org/2000/svg">
<path d="M347.217 150.895H272V143.41H287.016V38.0696H272V30.5388H339.686V38.0696H347.217V45.6005H354.747V75.6779H347.217V90.7396H354.747V98.2705H362.278V135.879H354.747V143.41H347.217V150.895ZM302.077 83.2088H332.155V75.6779H339.686V45.6005H332.155V38.0696H302.077V83.2088ZM302.077 143.41H339.686V135.879H347.217V98.2705H339.686V90.7396H302.077V143.41Z" fill="#619698"/>
<path d="M439.468 150.895H401.859V143.41H394.328V135.879H386.798V120.817H379.313V98.2705H386.798V83.2088H394.328V75.6779H401.859V68.1471H439.468V75.6779H446.998V83.2088H454.529V98.2705H462.06V120.817H454.529V135.879H446.998V143.41H439.468V150.895ZM409.39 143.41H431.937V135.879H439.468V120.817H446.998V98.2705H439.468V83.2088H431.937V75.6779H409.39V83.2088H401.859V98.2705H394.328V120.817H401.859V135.879H409.39V143.41Z" fill="#619698"/>
<path d="M512.846 150.895H490.253V143.41H482.722V75.6779H475.237V68.1471H482.722V60.6162H490.253V53.1313H497.784V68.1471H520.376V75.6779H497.784V143.41H512.846V150.895ZM520.376 143.41H512.846V135.879H520.376V143.41Z" fill="#619698"/>
<path d="M571.116 150.895H548.523V143.41H540.993V75.6779H533.508V68.1471H540.993V60.6162H548.523V53.1313H556.054V68.1471H578.647V75.6779H556.054V143.41H571.116V150.895ZM578.647 143.41H571.116V135.879H578.647V143.41Z" fill="#619698"/>
<path d="M621.855 150.895H591.778V143.41H599.263V30.5388H591.778V23.008H599.263V15.4771H606.794V7.99219H614.325V143.41H621.855V150.895Z" fill="#619698"/>
<path d="M695.142 150.895H657.533V143.41H650.002V135.879H642.472V120.817H634.987V98.2705H642.472V83.2088H650.002V90.7396H695.142V83.2088H687.611V75.6779H657.533V68.1471H695.142V75.6779H702.672V83.2088H710.203V98.2705H650.002V120.817H657.533V135.879H665.064V143.41H695.142V150.895ZM657.533 83.2088H650.002V75.6779H657.533V83.2088ZM710.203 135.879H702.672V128.348H710.203V135.879ZM702.672 143.41H695.142V135.879H702.672V143.41Z" fill="#619698"/>
<path d="M753.458 150.895H723.38V143.41H730.865V83.2088H723.38V75.6779H730.865V68.1471H738.396V60.6162H745.927V75.6779H753.458V83.2088H745.927V143.41H753.458V150.895ZM809.893 150.895H779.77V143.41H787.301V83.2088H779.77V75.6779H753.458V68.1471H787.301V75.6779H794.832V83.2088H802.362V143.41H809.893V150.895Z" fill="#619698"/>
<path d="M883.317 150.895H845.709V143.41H838.178V135.879H830.647V120.817H823.162V98.2705H830.647V83.2088H838.178V90.7396H883.317V83.2088H875.786V75.6779H845.709V68.1471H883.317V75.6779H890.848V83.2088H898.379V98.2705H838.178V120.817H845.709V135.879H853.24V143.41H883.317V150.895ZM845.709 83.2088H838.178V75.6779H845.709V83.2088ZM898.379 135.879H890.848V128.348H898.379V135.879ZM890.848 143.41H883.317V135.879H890.848V143.41Z" fill="#619698"/>
<path d="M973.687 150.895H936.079V143.41H928.548V135.879H921.017V120.817H913.532V98.2705H921.017V83.2088H928.548V75.6779H936.079V68.1471H973.687V75.6779H981.218V83.2088H988.749V90.7396H973.687V83.2088H966.156V75.6779H943.61V83.2088H936.079V98.2705H928.548V120.817H936.079V135.879H943.61V143.41H973.687V150.895ZM988.749 135.879H981.218V128.348H988.749V135.879ZM981.218 143.41H973.687V135.879H981.218V143.41Z" fill="#619698"/>
<path d="M1028.33 150.895H998.253V143.41H1005.74V30.5388H998.253V23.008H1005.74V15.4771H1013.27V7.99219H1020.8V105.755H1028.33V98.2705H1035.86V105.755H1043.39V113.286H1050.88V120.817H1058.41V128.348H1065.94V135.879H1073.47V143.41H1081V150.895H1050.88V143.41H1058.41V135.879H1050.88V128.348H1043.39V120.817H1035.86V113.286H1020.8V143.41H1028.33V150.895ZM1058.41 83.2088H1050.88V75.6779H1039.63V68.1471H1073.47V75.6779H1058.41V83.2088ZM1050.88 90.7396H1043.39V83.2088H1050.88V90.7396ZM1043.39 98.2705H1035.86V90.7396H1043.39V98.2705Z" fill="#619698"/>
<g filter="url(#filter0_b_1489_40802)">
<rect x="33.9419" y="42.4727" width="174.558" height="135.767" rx="20.1627" fill="#619698"/>
</g>
<g filter="url(#filter1_b_1489_40802)">
<rect y="0.761719" width="174.558" height="135.767" rx="20.1627" fill="#CDBCF1" fill-opacity="0.7"/>
</g>
<defs>
<filter id="filter0_b_1489_40802" x="20.276" y="28.8068" width="201.889" height="163.097" filterUnits="userSpaceOnUse" color-interpolation-filters="sRGB">
<feFlood flood-opacity="0" result="BackgroundImageFix"/>
<feGaussianBlur in="BackgroundImageFix" stdDeviation="6.83292"/>
<feComposite in2="SourceAlpha" operator="in" result="effect1_backgroundBlur_1489_40802"/>
<feBlend mode="normal" in="SourceGraphic" in2="effect1_backgroundBlur_1489_40802" result="shape"/>
</filter>
<filter id="filter1_b_1489_40802" x="-13.6658" y="-12.9041" width="201.889" height="163.097" filterUnits="userSpaceOnUse" color-interpolation-filters="sRGB">
<feFlood flood-opacity="0" result="BackgroundImageFix"/>
<feGaussianBlur in="BackgroundImageFix" stdDeviation="6.83292"/>
<feComposite in2="SourceAlpha" operator="in" result="effect1_backgroundBlur_1489_40802"/>
<feBlend mode="normal" in="SourceGraphic" in2="effect1_backgroundBlur_1489_40802" result="shape"/>
</filter>
</defs>
</svg>
