<svg width="37" height="39" viewBox="0 0 37 39" fill="none" xmlns="http://www.w3.org/2000/svg">
<rect y="0.25" width="37" height="38" rx="10" fill="#A997EB"/>
<path d="M18.499 21.75C20.159 21.75 21.499 20.41 21.499 18.75V12.75C21.499 11.09 20.159 9.75 18.499 9.75C16.839 9.75 15.499 11.09 15.499 12.75V18.75C15.499 20.41 16.839 21.75 18.499 21.75ZM17.499 12.75C17.499 12.2 17.949 11.75 18.499 11.75C19.049 11.75 19.499 12.2 19.499 12.75V18.75C19.499 19.3 19.049 19.75 18.499 19.75C17.949 19.75 17.499 19.3 17.499 18.75V12.75ZM24.409 18.75C23.919 18.75 23.509 19.11 23.429 19.6C23.019 21.95 20.969 23.75 18.499 23.75C16.029 23.75 13.979 21.95 13.569 19.6C13.489 19.11 13.079 18.75 12.589 18.75C11.979 18.75 11.499 19.29 11.589 19.89C12.079 22.89 14.479 25.24 17.499 25.67V27.75C17.499 28.3 17.949 28.75 18.499 28.75C19.049 28.75 19.499 28.3 19.499 27.75V25.67C22.519 25.24 24.919 22.89 25.409 19.89C25.509 19.29 25.019 18.75 24.409 18.75Z" fill="white"/>
</svg>
