<svg width="37" height="39" viewBox="0 0 37 39" fill="none" xmlns="http://www.w3.org/2000/svg">
<rect y="0.25" width="37" height="38" rx="10" fill="#A997EB"/>
<path d="M12.7039 15.7518H9.70386C9.15386 15.7518 8.70386 15.3018 8.70386 14.7518C8.70386 14.2018 9.15386 13.7518 9.70386 13.7518H12.7039C13.2539 13.7518 13.7039 14.2018 13.7039 14.7518C13.7039 15.3018 13.2539 15.7518 12.7039 15.7518ZM12.7039 18.7518H9.70386C9.15386 18.7518 8.70386 19.2018 8.70386 19.7518C8.70386 20.3018 9.15386 20.7518 9.70386 20.7518H12.7039C13.2539 20.7518 13.7039 20.3018 13.7039 19.7518C13.7039 19.2018 13.2539 18.7518 12.7039 18.7518ZM26.5839 25.0418L23.4639 21.9218C22.6039 22.4818 21.5739 22.8018 20.4639 22.7418C18.0939 22.6318 16.0639 20.7818 15.7439 18.4318C15.3039 15.0818 18.1939 12.2518 21.5739 12.8218C23.5239 13.1518 25.1439 14.6718 25.5739 16.6018C25.9039 18.0618 25.5839 19.4218 24.8739 20.5018L28.0039 23.6318C28.3939 24.0218 28.3939 24.6518 28.0039 25.0418C27.6139 25.4318 26.9739 25.4318 26.5839 25.0418ZM23.7039 17.7518C23.7039 16.1018 22.3539 14.7518 20.7039 14.7518C19.0539 14.7518 17.7039 16.1018 17.7039 17.7518C17.7039 19.4018 19.0539 20.7518 20.7039 20.7518C22.3539 20.7518 23.7039 19.4018 23.7039 17.7518ZM9.70386 25.7518H17.7039C18.2539 25.7518 18.7039 25.3018 18.7039 24.7518C18.7039 24.2018 18.2539 23.7518 17.7039 23.7518H9.70386C9.15386 23.7518 8.70386 24.2018 8.70386 24.7518C8.70386 25.3018 9.15386 25.7518 9.70386 25.7518Z" fill="white"/>
</svg>
