<svg width="38" height="38" viewBox="0 0 38 38" fill="none" xmlns="http://www.w3.org/2000/svg">
<rect width="38" height="38" rx="10" fill="#B39EE0"/>
<path d="M25.65 15.35L22.86 18.14C22.54 18.46 22.76 19 23.21 19H25C25 22.31 22.31 25 19 25C18.21 25 17.44 24.85 16.75 24.56C16.39 24.41 15.98 24.52 15.71 24.79C15.2 25.3 15.38 26.16 16.05 26.43C16.96 26.8 17.96 27 19 27C23.42 27 27 23.42 27 19H28.79C29.24 19 29.46 18.46 29.14 18.15L26.35 15.36C26.16 15.16 25.84 15.16 25.65 15.35ZM13 19C13 15.69 15.69 13 19 13C19.79 13 20.56 13.15 21.25 13.44C21.61 13.59 22.02 13.48 22.29 13.21C22.8 12.7 22.62 11.84 21.95 11.57C21.04 11.2 20.04 11 19 11C14.58 11 11 14.58 11 19H9.21003C8.76003 19 8.54003 19.54 8.86003 19.85L11.65 22.64C11.85 22.84 12.16 22.84 12.36 22.64L15.15 19.85C15.46 19.54 15.24 19 14.79 19H13Z" fill="white"/>
</svg>
