<svg width="38" height="38" viewBox="0 0 38 38" fill="none" xmlns="http://www.w3.org/2000/svg">
<rect width="38" height="38" rx="10" fill="#B39EE0"/>
<path d="M11 11H27V23H12.17L11 24.17V11ZM11 9C9.9 9 9.01 9.9 9.01 11L9.00134 26.5839C9.00085 27.4751 10.0783 27.9217 10.7084 27.2916L12.7071 25.2929C12.8946 25.1054 13.149 25 13.4142 25H27C28.1 25 29 24.1 29 23V11C29 9.9 28.1 9 27 9H11ZM13 20C13 19.4477 13.4477 19 14 19H20C20.5523 19 21 19.4477 21 20V20C21 20.5523 20.5523 21 20 21H14C13.4477 21 13 20.5523 13 20V20ZM13 17C13 16.4477 13.4477 16 14 16H24C24.5523 16 25 16.4477 25 17V17C25 17.5523 24.5523 18 24 18H14C13.4477 18 13 17.5523 13 17V17ZM13 14C13 13.4477 13.4477 13 14 13H24C24.5523 13 25 13.4477 25 14V14C25 14.5523 24.5523 15 24 15H14C13.4477 15 13 14.5523 13 14V14Z" fill="white"/>
</svg>
