<svg width="38" height="38" viewBox="0 0 38 38" fill="none" xmlns="http://www.w3.org/2000/svg">
<rect width="38" height="38" rx="10" fill="#B39EE0"/>
<path d="M25 15.5H24V13.5C24 10.74 21.76 8.5 19 8.5C16.24 8.5 14 10.74 14 13.5V15.5H13C11.9 15.5 11 16.4 11 17.5V27.5C11 28.6 11.9 29.5 13 29.5H25C26.1 29.5 27 28.6 27 27.5V17.5C27 16.4 26.1 15.5 25 15.5ZM16 13.5C16 11.84 17.34 10.5 19 10.5C20.66 10.5 22 11.84 22 13.5V15.5H16V13.5ZM25 27.5H13V17.5H25V27.5ZM19 24.5C20.1 24.5 21 23.6 21 22.5C21 21.4 20.1 20.5 19 20.5C17.9 20.5 17 21.4 17 22.5C17 23.6 17.9 24.5 19 24.5Z" fill="white"/>
</svg>
