<svg width="38" height="38" viewBox="0 0 38 38" fill="none" xmlns="http://www.w3.org/2000/svg">
<rect width="38" height="38" rx="10" fill="#B39EE0"/>
<path d="M22.9765 21.4716H22.1865L21.9065 21.2016C23.1065 19.8016 23.7265 17.8916 23.3865 15.8616C22.9165 13.0816 20.5965 10.8616 17.7965 10.5216C13.5665 10.0016 10.0065 13.5616 10.5265 17.7916C10.8665 20.5916 13.0865 22.9116 15.8665 23.3816C17.8965 23.7216 19.8065 23.1016 21.2065 21.9016L21.4765 22.1816V22.9716L25.7265 27.2216C26.1365 27.6316 26.8065 27.6316 27.2165 27.2216C27.6265 26.8116 27.6265 26.1416 27.2165 25.7316L22.9765 21.4716ZM16.9765 21.4716C14.4865 21.4716 12.4765 19.4616 12.4765 16.9716C12.4765 14.4816 14.4865 12.4716 16.9765 12.4716C19.4665 12.4716 21.4765 14.4816 21.4765 16.9716C21.4765 19.4616 19.4665 21.4716 16.9765 21.4716Z" fill="white"/>
</svg>
