<svg width="38" height="38" viewBox="0 0 38 38" fill="none" xmlns="http://www.w3.org/2000/svg">
<rect width="38" height="38" rx="10" fill="#B39EE0"/>
<path d="M24 19C24 16.24 21.76 14 19 14C16.24 14 14 16.24 14 19C14 21.76 16.24 24 19 24C21.76 24 24 21.76 24 19ZM19 22C17.35 22 16 20.65 16 19C16 17.35 17.35 16 19 16C20.65 16 22 17.35 22 19C22 20.65 20.65 22 19 22ZM12 22H10V26C10 27.1 10.9 28 12 28H16V26H12V22ZM12 12H16V10H12C10.9 10 10 10.9 10 12V16H12V12ZM26 10H22V12H26V16H28V12C28 10.9 27.1 10 26 10ZM26 26H22V28H26C27.1 28 28 27.1 28 26V22H26V26Z" fill="white"/>
</svg>
