<svg width="38" height="38" viewBox="0 0 38 38" fill="none" xmlns="http://www.w3.org/2000/svg">
<rect width="38" height="38" rx="10" fill="#B39EE0"/>
<path d="M25.3 12.71C24.91 12.32 24.28 12.32 23.89 12.71L19 17.59L14.11 12.7C13.72 12.31 13.09 12.31 12.7 12.7C12.31 13.09 12.31 13.72 12.7 14.11L17.59 19L12.7 23.89C12.31 24.28 12.31 24.91 12.7 25.3C13.09 25.69 13.72 25.69 14.11 25.3L19 20.41L23.89 25.3C24.28 25.69 24.91 25.69 25.3 25.3C25.69 24.91 25.69 24.28 25.3 23.89L20.41 19L25.3 14.11C25.68 13.73 25.68 13.09 25.3 12.71Z" fill="white"/>
</svg>
