<svg width="37" height="39" viewBox="0 0 37 39" fill="none" xmlns="http://www.w3.org/2000/svg">
<rect y="0.25" width="37" height="38" rx="10" fill="#A997EB"/>
<path d="M18.5 9.25C12.98 9.25 8.5 13.73 8.5 19.25C8.5 24.77 12.98 29.25 18.5 29.25C24.02 29.25 28.5 24.77 28.5 19.25C28.5 13.73 24.02 9.25 18.5 9.25ZM18.5 27.25C14.09 27.25 10.5 23.66 10.5 19.25C10.5 14.84 14.09 11.25 18.5 11.25C22.91 11.25 26.5 14.84 26.5 19.25C26.5 23.66 22.91 27.25 18.5 27.25ZM22.38 15.54L16.5 21.42L14.62 19.54C14.23 19.15 13.6 19.15 13.21 19.54C12.82 19.93 12.82 20.56 13.21 20.95L15.8 23.54C16.19 23.93 16.82 23.93 17.21 23.54L23.8 16.95C24.19 16.56 24.19 15.93 23.8 15.54C23.41 15.15 22.77 15.15 22.38 15.54Z" fill="white"/>
</svg>
