<svg width="38" height="38" viewBox="0 0 38 38" fill="none" xmlns="http://www.w3.org/2000/svg">
<rect width="38" height="38" rx="10" fill="#B39EE0"/>
<path d="M28 13C28 12.4477 27.5523 12 27 12H11C10.4477 12 10 12.4477 10 13V13C10 13.5523 10.4477 14 11 14H27C27.5523 14 28 13.5523 28 13V13Z" fill="white"/>
<path d="M28 25C28 24.4477 27.5523 24 27 24H11C10.4477 24 10 24.4477 10 25V25C10 25.5523 10.4477 26 11 26H27C27.5523 26 28 25.5523 28 25V25Z" fill="white"/>
<path d="M28 19C28 18.4477 27.5523 18 27 18H11C10.4477 18 10 18.4477 10 19V19C10 19.5523 10.4477 20 11 20H27C27.5523 20 28 19.5523 28 19V19Z" fill="white"/>
</svg>
