<svg width="1371" height="242" viewBox="0 0 1371 242" fill="none" xmlns="http://www.w3.org/2000/svg">
<path d="M412.25 190.608H314V180.831H333.614V43.2332H314V33.3963H402.413V43.2332H412.25V53.0702H422.087V92.3581H412.25V112.032H422.087V121.869H431.924V170.994H422.087V180.831H412.25V190.608ZM353.288 102.195H392.576V92.3581H402.413V53.0702H392.576V43.2332H353.288V102.195ZM353.288 180.831H402.413V170.994H412.25V121.869H402.413V112.032H353.288V180.831Z" fill="white"/>
<path d="M532.75 190.608H483.625V180.831H473.788V170.994H463.952V151.32H454.175V121.869H463.952V102.195H473.788V92.3581H483.625V82.5212H532.75V92.3581H542.587V102.195H552.424V121.869H562.261V151.32H552.424V170.994H542.587V180.831H532.75V190.608ZM493.462 180.831H522.913V170.994H532.75V151.32H542.587V121.869H532.75V102.195H522.913V92.3581H493.462V102.195H483.625V121.869H473.788V151.32H483.625V170.994H493.462V180.831Z" fill="white"/>
<path d="M628.599 190.608H599.088V180.831H589.251V92.3581H579.474V82.5212H589.251V72.6842H599.088V62.9072H608.925V82.5212H638.436V92.3581H608.925V180.831H628.599V190.608ZM638.436 180.831H628.599V170.994H638.436V180.831Z" fill="white"/>
<path d="M704.713 190.608H675.202V180.831H665.365V92.3581H655.588V82.5212H665.365V72.6842H675.202V62.9072H685.039V82.5212H714.55V92.3581H685.039V180.831H704.713V190.608ZM714.55 180.831H704.713V170.994H714.55V180.831Z" fill="white"/>
<path d="M770.99 190.608H731.702V180.831H741.479V33.3963H731.702V23.5593H741.479V13.7223H751.316V3.94531H761.153V180.831H770.99V190.608Z" fill="white"/>
<path d="M866.718 190.608H817.593V180.831H807.756V170.994H797.919V151.32H788.142V121.869H797.919V102.195H807.756V112.032H866.718V102.195H856.881V92.3581H817.593V82.5212H866.718V92.3581H876.555V102.195H886.392V121.869H807.756V151.32H817.593V170.994H827.43V180.831H866.718V190.608ZM817.593 102.195H807.756V92.3581H817.593V102.195ZM886.392 170.994H876.555V161.157H886.392V170.994ZM876.555 180.831H866.718V170.994H876.555V180.831Z" fill="white"/>
<path d="M942.892 190.608H903.604V180.831H913.381V102.195H903.604V92.3581H913.381V82.5212H923.218V72.6842H933.055V92.3581H942.892V102.195H933.055V180.831H942.892V190.608ZM1016.61 190.608H977.262V180.831H987.099V102.195H977.262V92.3581H942.892V82.5212H987.099V92.3581H996.936V102.195H1006.77V180.831H1016.61V190.608Z" fill="white"/>
<path d="M1112.52 190.608H1063.39V180.831H1053.56V170.994H1043.72V151.32H1033.94V121.869H1043.72V102.195H1053.56V112.032H1112.52V102.195H1102.68V92.3581H1063.39V82.5212H1112.52V92.3581H1122.35V102.195H1132.19V121.869H1053.56V151.32H1063.39V170.994H1073.23V180.831H1112.52V190.608ZM1063.39 102.195H1053.56V92.3581H1063.39V102.195ZM1132.19 170.994H1122.35V161.157H1132.19V170.994ZM1122.35 180.831H1112.52V170.994H1122.35V180.831Z" fill="white"/>
<path d="M1230.56 190.608H1181.44V180.831H1171.6V170.994H1161.76V151.32H1151.99V121.869H1161.76V102.195H1171.6V92.3581H1181.44V82.5212H1230.56V92.3581H1240.4V102.195H1250.24V112.032H1230.56V102.195H1220.72V92.3581H1191.27V102.195H1181.44V121.869H1171.6V151.32H1181.44V170.994H1191.27V180.831H1230.56V190.608ZM1250.24 170.994H1240.4V161.157H1250.24V170.994ZM1240.4 180.831H1230.56V170.994H1240.4V180.831Z" fill="white"/>
<path d="M1301.94 190.608H1262.65V180.831H1272.43V33.3963H1262.65V23.5593H1272.43V13.7223H1282.26V3.94531H1292.1V131.646H1301.94V121.869H1311.77V131.646H1321.61V141.483H1331.39V151.32H1341.23V161.157H1351.06V170.994H1360.9V180.831H1370.74V190.608H1331.39V180.831H1341.23V170.994H1331.39V161.157H1321.61V151.32H1311.77V141.483H1292.1V180.831H1301.94V190.608ZM1341.23 102.195H1331.39V92.3581H1316.69V82.5212H1360.9V92.3581H1341.23V102.195ZM1331.39 112.032H1321.61V102.195H1331.39V112.032ZM1321.61 121.869H1311.77V112.032H1321.61V121.869Z" fill="white"/>
<path fill-rule="evenodd" clip-rule="evenodd" d="M241.596 150.5L241.596 190.671L241.596 190.671L241.596 198.999L222.934 198.999L222.934 199.001L232.265 199.001L232.265 208.332L222.934 208.332L222.934 217.663L204.272 217.663L204.272 217.623L79.7634 217.623L79.7634 217.661L61.1015 217.661L61.1015 208.33L51.7712 208.33L51.7712 198.999L61.1015 198.999L61.1015 198.997L42.4396 198.997L42.4396 190.671L42.2694 190.671L42.2694 150.5L42.4396 150.5L42.4396 141.007L61.1014 141.007L61.1014 141.005L51.7712 141.005L51.7712 131.674L61.1014 131.674L61.1014 122.344L75.6009 122.344L75.6009 122.277L213.449 122.277L213.449 122.351L222.934 122.351L222.934 131.682L232.265 131.682L232.265 141.013L222.934 141.013L222.934 141.015L241.596 141.015L241.596 150.5L241.596 150.5Z" fill="#25454D"/>
<path fill-rule="evenodd" clip-rule="evenodd" d="M241.596 102.199L241.596 142.37L241.596 142.37L241.596 150.705L222.934 150.705L222.934 150.707L232.265 150.707L232.265 160.038L222.934 160.038L222.934 169.368L204.272 169.368L204.272 169.322L79.7634 169.322L79.7634 169.357L61.1015 169.357L61.1015 160.026L51.7712 160.026L51.7712 150.695L61.1015 150.695L61.1015 150.693L42.4396 150.693L42.4396 142.37L42.2694 142.37L42.2694 102.199L42.4396 102.199L42.4396 92.703L61.1014 92.703L61.1014 92.7008L51.7712 92.7008L51.7712 83.3699L61.1014 83.3699L61.1014 74.0396L75.6009 74.0396L75.6009 73.9766L213.449 73.9766L213.449 74.0473L222.934 74.0473L222.934 83.3775L232.265 83.3775L232.265 92.7085L222.934 92.7085L222.934 92.7107L241.596 92.7107L241.596 102.199L241.596 102.199Z" fill="#25454D"/>
<path fill-rule="evenodd" clip-rule="evenodd" d="M199.328 140.131L180.666 140.131L180.666 140.133L189.997 140.133L189.997 149.464L180.666 149.464L180.666 158.794L162.004 158.794L162.004 158.751L37.4958 158.751L37.4958 158.789L18.8339 158.789L18.8339 149.458L9.5037 149.458L9.5037 140.127L18.8339 140.127L18.8339 140.125L0.172039 140.125L0.17204 131.8L0.00147711 131.8L0.00147887 91.6288L0.172042 91.6288L0.172042 82.135L18.8339 82.135L18.8339 82.1328L9.50371 82.1328L9.50371 72.8019L18.8339 72.8019L18.8339 63.4716L33.333 63.4716L33.333 63.4062L171.182 63.4062L171.182 63.4793L180.666 63.4793L180.666 72.8095L189.997 72.8095L189.997 82.1405L180.666 82.1405L180.666 82.1427L199.328 82.1427L199.328 100.805L199.328 100.805L199.328 121.469L199.328 121.469L199.328 140.131Z" fill="#619698"/>
<path fill-rule="evenodd" clip-rule="evenodd" d="M199.328 91.8209L180.666 91.8209L180.666 91.8231L189.997 91.8231L189.997 101.154L180.666 101.154L180.666 110.484L162.004 110.484L162.004 110.439L37.4956 110.439L37.4956 110.475L18.8337 110.475L18.8337 101.144L9.50346 101.144L9.50346 91.8135L18.8337 91.8135L18.8337 91.8114L0.171795 91.8114L0.171796 83.4877L0.00135504 83.4877L0.0013568 43.3163L0.171797 43.3163L0.171798 33.8212L18.8337 33.8212L18.8337 33.819L9.50346 33.819L9.50346 24.488L18.8337 24.488L18.8337 15.1578L33.3329 15.1578L33.3329 15.0937L171.181 15.0937L171.181 15.1616L180.666 15.1616L180.666 24.4918L189.997 24.4918L189.997 33.8228L180.666 33.8228L180.666 33.8249L199.328 33.8249L199.328 52.4868L199.328 52.4868L199.328 73.159L199.328 73.159L199.328 91.8209Z" fill="#619698"/>
</svg>
